<svg xmlns="http://www.w3.org/2000/svg" width="50" height="50" viewBox="0 0 50 50" fill="none" class="map-icon">
  <path d="M39.0625 43.75H29.4023C31.0251 42.301 32.5554 40.7518 33.9844 39.1113C39.3457 32.9453 42.1875 26.4453 42.1875 20.3125C42.1875 15.7541 40.3767 11.3824 37.1534 8.1591C33.9301 4.93582 29.5584 3.125 25 3.125C20.4416 3.125 16.0699 4.93582 12.8466 8.1591C9.62332 11.3824 7.8125 15.7541 7.8125 20.3125C7.8125 26.4453 10.6465 32.9453 16.0156 39.1113C17.4446 40.7518 18.9749 42.301 20.5977 43.75H10.9375C10.5231 43.75 10.1257 43.9146 9.83265 44.2076C9.53962 44.5007 9.375 44.8981 9.375 45.3125C9.375 45.7269 9.53962 46.1243 9.83265 46.4174C10.1257 46.7104 10.5231 46.875 10.9375 46.875H39.0625C39.4769 46.875 39.8743 46.7104 40.1674 46.4174C40.4604 46.1243 40.625 45.7269 40.625 45.3125C40.625 44.8981 40.4604 44.5007 40.1674 44.2076C39.8743 43.9146 39.4769 43.75 39.0625 43.75ZM10.9375 20.3125C10.9375 16.5829 12.4191 13.006 15.0563 10.3688C17.6935 7.73158 21.2704 6.25 25 6.25C28.7296 6.25 32.3065 7.73158 34.9437 10.3688C37.5809 13.006 39.0625 16.5829 39.0625 20.3125C39.0625 31.4902 28.2285 40.8203 25 43.3594C21.7715 40.8203 10.9375 31.4902 10.9375 20.3125ZM32.8125 20.3125C32.8125 18.7673 32.3543 17.2569 31.4959 15.9721C30.6374 14.6873 29.4173 13.686 27.9897 13.0947C26.5622 12.5034 24.9913 12.3487 23.4759 12.6501C21.9604 12.9516 20.5683 13.6956 19.4757 14.7882C18.3831 15.8808 17.6391 17.2729 17.3376 18.7884C17.0362 20.3038 17.1909 21.8747 17.7822 23.3022C18.3735 24.7298 19.3748 25.9499 20.6596 26.8084C21.9444 27.6668 23.4548 28.125 25 28.125C27.072 28.125 29.0591 27.3019 30.5243 25.8368C31.9894 24.3716 32.8125 22.3845 32.8125 20.3125ZM20.3125 20.3125C20.3125 19.3854 20.5874 18.4791 21.1025 17.7083C21.6176 16.9374 22.3496 16.3366 23.2062 15.9818C24.0627 15.627 25.0052 15.5342 25.9145 15.7151C26.8238 15.8959 27.659 16.3424 28.3146 16.9979C28.9701 17.6535 29.4166 18.4887 29.5974 19.398C29.7783 20.3073 29.6855 21.2498 29.3307 22.1063C28.9759 22.9629 28.3751 23.6949 27.6042 24.21C26.8334 24.7251 25.9271 25 25 25C23.7568 25 22.5645 24.5061 21.6854 23.6271C20.8064 22.748 20.3125 21.5557 20.3125 20.3125Z" fill="#40916C"/>
</svg>
