<svg xmlns="http://www.w3.org/2000/svg" width="56" height="64" viewBox="0 0 56 64" fill="none">
  <path fill-rule="evenodd" clip-rule="evenodd" d="M27.9379 0C21.7661 0 16.7628 5.16175 16.7628 11.375C16.7628 17.5882 21.766 22.625 27.9379 22.625C34.1098 22.625 39.1131 17.5882 39.1131 11.375C39.1131 5.16175 34.1097 0 27.9379 0Z" fill="#009EFF"/>
  <path fill-rule="evenodd" clip-rule="evenodd" d="M36.2646 38.6875C31.41 38.6875 29.7494 44.5194 29.733 44.578C29.728 44.5959 29.7092 44.6039 29.7037 44.6215C29.7037 44.6213 29.7042 44.6213 29.7042 44.621C29.4639 45.4035 28.76 45.9458 27.9432 45.9494C27.9414 45.9494 27.9396 45.9494 27.9359 45.9494C27.1047 45.9494 26.3735 45.3909 26.1443 44.5853C26.077 44.3435 24.42 38.6874 19.6109 38.6874C15.9241 38.6874 13.1448 41.7929 13.1448 45.9128C13.1448 50.8164 17.5374 55.7378 24.8166 61.923C25.4379 62.4501 26.0769 62.993 26.7321 63.5535C27.4265 64.1473 28.4471 64.149 29.1417 63.5555C29.7965 62.9959 30.4343 62.4541 31.0535 61.9265C36.5913 57.2236 42.7307 51.1778 42.7307 45.9125C42.7307 41.793 39.9516 38.6875 36.2646 38.6875Z" fill="#009EFF"/>
  <path fill-rule="evenodd" clip-rule="evenodd" d="M37.4368 22.8125C34.8665 25.0251 31.5885 26.375 27.9379 26.375C24.2874 26.375 21.0093 25.025 18.439 22.8125C8.00887 23.8624 0 32.6874 0 43.375V46C0 52.075 2.34679 57.7749 6.59347 62.0499C6.59347 62.0874 6.59347 62.0874 6.63072 62.0874C7.78549 63.2499 9.38726 63.9249 11.0263 63.9624C13.7498 63.8937 15.9529 61.8136 16.3157 59.1382C12.8437 55.5474 9.41992 50.9461 9.41992 45.9128C9.41992 39.5075 14.2811 34.9374 19.5938 34.9374C19.5974 34.9374 19.6001 34.938 19.6038 34.938C19.6063 34.938 19.6086 34.9374 19.6112 34.9374C23.1168 34.9374 26.046 36.8785 27.9398 39.7183C29.8512 36.8515 32.7009 34.9374 36.2648 34.9374C36.2673 34.9374 36.2695 34.938 36.2721 34.938C36.2757 34.938 36.2784 34.9374 36.2822 34.9374C41.9259 34.9374 46.456 39.8107 46.456 45.9128C46.2805 46.3876 47.2117 51.0115 39.5552 59.0879C39.8972 61.7871 42.1091 63.8932 44.8498 63.9624C46.4888 63.9249 48.0906 63.2499 49.2454 62.0874C49.2826 62.0874 49.2826 62.0874 49.2826 62.0499C53.529 57.7749 55.8758 52.075 55.8758 46V43.375C55.8758 32.6874 47.8668 23.8624 37.4368 22.8125Z" fill="#40916C"/>
</svg>
