<svg id="visual" viewBox="0 0 960 300" width="960" height="300" xmlns="http://www.w3.org/2000/svg" xmlns:xlink="http://www.w3.org/1999/xlink" version="1.1"><rect x="0" y="0" width="960" height="300" fill="#132A13"></rect><path d="M0 221L17.8 223C35.7 225 71.3 229 106.8 228.8C142.3 228.7 177.7 224.3 213.2 224.2C248.7 224 284.3 228 320 228C355.7 228 391.3 224 426.8 224C462.3 224 497.7 228 533.2 229.5C568.7 231 604.3 230 640 230C675.7 230 711.3 231 746.8 230.3C782.3 229.7 817.7 227.3 853.2 225.8C888.7 224.3 924.3 223.7 942.2 223.3L960 223L960 301L942.2 301C924.3 301 888.7 301 853.2 301C817.7 301 782.3 301 746.8 301C711.3 301 675.7 301 640 301C604.3 301 568.7 301 533.2 301C497.7 301 462.3 301 426.8 301C391.3 301 355.7 301 320 301C284.3 301 248.7 301 213.2 301C177.7 301 142.3 301 106.8 301C71.3 301 35.7 301 17.8 301L0 301Z" fill="#132a13"></path><path d="M0 235L17.8 235C35.7 235 71.3 235 106.8 234.3C142.3 233.7 177.7 232.3 213.2 232.5C248.7 232.7 284.3 234.3 320 235.5C355.7 236.7 391.3 237.3 426.8 236.8C462.3 236.3 497.7 234.7 533.2 233.5C568.7 232.3 604.3 231.7 640 232.8C675.7 234 711.3 237 746.8 238.5C782.3 240 817.7 240 853.2 239C888.7 238 924.3 236 942.2 235L960 234L960 301L942.2 301C924.3 301 888.7 301 853.2 301C817.7 301 782.3 301 746.8 301C711.3 301 675.7 301 640 301C604.3 301 568.7 301 533.2 301C497.7 301 462.3 301 426.8 301C391.3 301 355.7 301 320 301C284.3 301 248.7 301 213.2 301C177.7 301 142.3 301 106.8 301C71.3 301 35.7 301 17.8 301L0 301Z" fill="#2b4325"></path><path d="M0 243L17.8 243.5C35.7 244 71.3 245 106.8 244.3C142.3 243.7 177.7 241.3 213.2 240C248.7 238.7 284.3 238.3 320 239.5C355.7 240.7 391.3 243.3 426.8 245.2C462.3 247 497.7 248 533.2 246.8C568.7 245.7 604.3 242.3 640 241.5C675.7 240.7 711.3 242.3 746.8 243.8C782.3 245.3 817.7 246.7 853.2 247.5C888.7 248.3 924.3 248.7 942.2 248.8L960 249L960 301L942.2 301C924.3 301 888.7 301 853.2 301C817.7 301 782.3 301 746.8 301C711.3 301 675.7 301 640 301C604.3 301 568.7 301 533.2 301C497.7 301 462.3 301 426.8 301C391.3 301 355.7 301 320 301C284.3 301 248.7 301 213.2 301C177.7 301 142.3 301 106.8 301C71.3 301 35.7 301 17.8 301L0 301Z" fill="#455e38"></path><path d="M0 253L17.8 252.2C35.7 251.3 71.3 249.7 106.8 249.2C142.3 248.7 177.7 249.3 213.2 251C248.7 252.7 284.3 255.3 320 256C355.7 256.7 391.3 255.3 426.8 255.3C462.3 255.3 497.7 256.7 533.2 256.5C568.7 256.3 604.3 254.7 640 253.2C675.7 251.7 711.3 250.3 746.8 251.2C782.3 252 817.7 255 853.2 256.5C888.7 258 924.3 258 942.2 258L960 258L960 301L942.2 301C924.3 301 888.7 301 853.2 301C817.7 301 782.3 301 746.8 301C711.3 301 675.7 301 640 301C604.3 301 568.7 301 533.2 301C497.7 301 462.3 301 426.8 301C391.3 301 355.7 301 320 301C284.3 301 248.7 301 213.2 301C177.7 301 142.3 301 106.8 301C71.3 301 35.7 301 17.8 301L0 301Z" fill="#627b4b"></path><path d="M0 263L17.8 262.8C35.7 262.7 71.3 262.3 106.8 262.7C142.3 263 177.7 264 213.2 264.8C248.7 265.7 284.3 266.3 320 265.7C355.7 265 391.3 263 426.8 261.7C462.3 260.3 497.7 259.7 533.2 259.2C568.7 258.7 604.3 258.3 640 259C675.7 259.7 711.3 261.3 746.8 262.8C782.3 264.3 817.7 265.7 853.2 264.8C888.7 264 924.3 261 942.2 259.5L960 258L960 301L942.2 301C924.3 301 888.7 301 853.2 301C817.7 301 782.3 301 746.8 301C711.3 301 675.7 301 640 301C604.3 301 568.7 301 533.2 301C497.7 301 462.3 301 426.8 301C391.3 301 355.7 301 320 301C284.3 301 248.7 301 213.2 301C177.7 301 142.3 301 106.8 301C71.3 301 35.7 301 17.8 301L0 301Z" fill="#81985f"></path><path d="M0 267L17.8 267.2C35.7 267.3 71.3 267.7 106.8 268.3C142.3 269 177.7 270 213.2 270.7C248.7 271.3 284.3 271.7 320 271.2C355.7 270.7 391.3 269.3 426.8 270C462.3 270.7 497.7 273.3 533.2 273.5C568.7 273.7 604.3 271.3 640 270.3C675.7 269.3 711.3 269.7 746.8 269.3C782.3 269 817.7 268 853.2 268.5C888.7 269 924.3 271 942.2 272L960 273L960 301L942.2 301C924.3 301 888.7 301 853.2 301C817.7 301 782.3 301 746.8 301C711.3 301 675.7 301 640 301C604.3 301 568.7 301 533.2 301C497.7 301 462.3 301 426.8 301C391.3 301 355.7 301 320 301C284.3 301 248.7 301 213.2 301C177.7 301 142.3 301 106.8 301C71.3 301 35.7 301 17.8 301L0 301Z" fill="#a2b673"></path><path d="M0 281L17.8 281C35.7 281 71.3 281 106.8 281.3C142.3 281.7 177.7 282.3 213.2 282.8C248.7 283.3 284.3 283.7 320 283.7C355.7 283.7 391.3 283.3 426.8 282.2C462.3 281 497.7 279 533.2 278.5C568.7 278 604.3 279 640 280.2C675.7 281.3 711.3 282.7 746.8 282.7C782.3 282.7 817.7 281.3 853.2 281.3C888.7 281.3 924.3 282.7 942.2 283.3L960 284L960 301L942.2 301C924.3 301 888.7 301 853.2 301C817.7 301 782.3 301 746.8 301C711.3 301 675.7 301 640 301C604.3 301 568.7 301 533.2 301C497.7 301 462.3 301 426.8 301C391.3 301 355.7 301 320 301C284.3 301 248.7 301 213.2 301C177.7 301 142.3 301 106.8 301C71.3 301 35.7 301 17.8 301L0 301Z" fill="#c6d488"></path><path d="M0 291L17.8 290.8C35.7 290.7 71.3 290.3 106.8 290.7C142.3 291 177.7 292 213.2 291.2C248.7 290.3 284.3 287.7 320 287.5C355.7 287.3 391.3 289.7 426.8 290.5C462.3 291.3 497.7 290.7 533.2 290.7C568.7 290.7 604.3 291.3 640 291C675.7 290.7 711.3 289.3 746.8 288.2C782.3 287 817.7 286 853.2 286.7C888.7 287.3 924.3 289.7 942.2 290.8L960 292L960 301L942.2 301C924.3 301 888.7 301 853.2 301C817.7 301 782.3 301 746.8 301C711.3 301 675.7 301 640 301C604.3 301 568.7 301 533.2 301C497.7 301 462.3 301 426.8 301C391.3 301 355.7 301 320 301C284.3 301 248.7 301 213.2 301C177.7 301 142.3 301 106.8 301C71.3 301 35.7 301 17.8 301L0 301Z" fill="#ecf39e"></path></svg>