<svg id="visual" viewBox="0 0 960 300" width="960" height="300" xmlns="http://www.w3.org/2000/svg" xmlns:xlink="http://www.w3.org/1999/xlink" version="1.1"><rect x="0" y="0" width="960" height="300" fill="#ffffff"></rect><path d="M0 72L22.8 69.3C45.7 66.7 91.3 61.3 137 60C182.7 58.7 228.3 61.3 274 66.7C319.7 72 365.3 80 411.2 81.8C457 83.7 503 79.3 548.8 72.3C594.7 65.3 640.3 55.7 686 51.8C731.7 48 777.3 50 823 54.2C868.7 58.3 914.3 64.7 937.2 67.8L960 71L960 0L937.2 0C914.3 0 868.7 0 823 0C777.3 0 731.7 0 686 0C640.3 0 594.7 0 548.8 0C503 0 457 0 411.2 0C365.3 0 319.7 0 274 0C228.3 0 182.7 0 137 0C91.3 0 45.7 0 22.8 0L0 0Z" fill="#ffffff"></path><path d="M0 43L22.8 43.8C45.7 44.7 91.3 46.3 137 48.7C182.7 51 228.3 54 274 56.7C319.7 59.3 365.3 61.7 411.2 64.5C457 67.3 503 70.7 548.8 73C594.7 75.3 640.3 76.7 686 75.8C731.7 75 777.3 72 823 66.2C868.7 60.3 914.3 51.7 937.2 47.3L960 43L960 0L937.2 0C914.3 0 868.7 0 823 0C777.3 0 731.7 0 686 0C640.3 0 594.7 0 548.8 0C503 0 457 0 411.2 0C365.3 0 319.7 0 274 0C228.3 0 182.7 0 137 0C91.3 0 45.7 0 22.8 0L0 0Z" fill="#fdfdf1"></path><path d="M0 56L22.8 55.7C45.7 55.3 91.3 54.7 137 51.2C182.7 47.7 228.3 41.3 274 40.5C319.7 39.7 365.3 44.3 411.2 48.8C457 53.3 503 57.7 548.8 57.5C594.7 57.3 640.3 52.7 686 47.3C731.7 42 777.3 36 823 38.7C868.7 41.3 914.3 52.7 937.2 58.3L960 64L960 0L937.2 0C914.3 0 868.7 0 823 0C777.3 0 731.7 0 686 0C640.3 0 594.7 0 548.8 0C503 0 457 0 411.2 0C365.3 0 319.7 0 274 0C228.3 0 182.7 0 137 0C91.3 0 45.7 0 22.8 0L0 0Z" fill="#fbfce4"></path><path d="M0 45L22.8 46.5C45.7 48 91.3 51 137 51.7C182.7 52.3 228.3 50.7 274 45.7C319.7 40.7 365.3 32.3 411.2 29.2C457 26 503 28 548.8 30.7C594.7 33.3 640.3 36.7 686 41.2C731.7 45.7 777.3 51.3 823 50.5C868.7 49.7 914.3 42.3 937.2 38.7L960 35L960 0L937.2 0C914.3 0 868.7 0 823 0C777.3 0 731.7 0 686 0C640.3 0 594.7 0 548.8 0C503 0 457 0 411.2 0C365.3 0 319.7 0 274 0C228.3 0 182.7 0 137 0C91.3 0 45.7 0 22.8 0L0 0Z" fill="#f8fad6"></path><path d="M0 29L22.8 30.3C45.7 31.7 91.3 34.3 137 34.7C182.7 35 228.3 33 274 35C319.7 37 365.3 43 411.2 43.7C457 44.3 503 39.7 548.8 39C594.7 38.3 640.3 41.7 686 39.5C731.7 37.3 777.3 29.7 823 25.5C868.7 21.3 914.3 20.7 937.2 20.3L960 20L960 0L937.2 0C914.3 0 868.7 0 823 0C777.3 0 731.7 0 686 0C640.3 0 594.7 0 548.8 0C503 0 457 0 411.2 0C365.3 0 319.7 0 274 0C228.3 0 182.7 0 137 0C91.3 0 45.7 0 22.8 0L0 0Z" fill="#f6f8c8"></path><path d="M0 20L22.8 23C45.7 26 91.3 32 137 31.2C182.7 30.3 228.3 22.7 274 18.3C319.7 14 365.3 13 411.2 14.5C457 16 503 20 548.8 22.3C594.7 24.7 640.3 25.3 686 25.8C731.7 26.3 777.3 26.7 823 24.3C868.7 22 914.3 17 937.2 14.5L960 12L960 0L937.2 0C914.3 0 868.7 0 823 0C777.3 0 731.7 0 686 0C640.3 0 594.7 0 548.8 0C503 0 457 0 411.2 0C365.3 0 319.7 0 274 0C228.3 0 182.7 0 137 0C91.3 0 45.7 0 22.8 0L0 0Z" fill="#f3f6ba"></path><path d="M0 22L22.8 19.7C45.7 17.3 91.3 12.7 137 10.5C182.7 8.3 228.3 8.7 274 9C319.7 9.3 365.3 9.7 411.2 9C457 8.3 503 6.7 548.8 5.8C594.7 5 640.3 5 686 8.8C731.7 12.7 777.3 20.3 823 23C868.7 25.7 914.3 23.3 937.2 22.2L960 21L960 0L937.2 0C914.3 0 868.7 0 823 0C777.3 0 731.7 0 686 0C640.3 0 594.7 0 548.8 0C503 0 457 0 411.2 0C365.3 0 319.7 0 274 0C228.3 0 182.7 0 137 0C91.3 0 45.7 0 22.8 0L0 0Z" fill="#eff5ac"></path><path d="M0 10L22.8 9.5C45.7 9 91.3 8 137 8.3C182.7 8.7 228.3 10.3 274 11.3C319.7 12.3 365.3 12.7 411.2 11.2C457 9.7 503 6.3 548.8 5.5C594.7 4.7 640.3 6.3 686 6.8C731.7 7.3 777.3 6.7 823 6.7C868.7 6.7 914.3 7.3 937.2 7.7L960 8L960 0L937.2 0C914.3 0 868.7 0 823 0C777.3 0 731.7 0 686 0C640.3 0 594.7 0 548.8 0C503 0 457 0 411.2 0C365.3 0 319.7 0 274 0C228.3 0 182.7 0 137 0C91.3 0 45.7 0 22.8 0L0 0Z" fill="#ecf39e"></path></svg>